<?xml version="1.0" encoding="UTF-8"?>
<svg width="700pt" height="700pt" version="1.1" viewBox="0 0 700 700" xmlns="http://www.w3.org/2000/svg" xmlns:xlink="http://www.w3.org/1999/xlink">
 <defs>
  <symbol id="u" overflow="visible">
   <path d="m18.766-1.125c-0.96875 0.5-1.9805 0.875-3.0312 1.125-1.043 0.25781-2.1367 0.39062-3.2812 0.39062-3.3984 0-6.0898-0.94531-8.0781-2.8438-1.9922-1.9062-2.9844-4.4844-2.9844-7.7344 0-3.2578 0.99219-5.8359 2.9844-7.7344 1.9883-1.9062 4.6797-2.8594 8.0781-2.8594 1.1445 0 2.2383 0.13281 3.2812 0.39062 1.0508 0.25 2.0625 0.625 3.0312 1.125v4.2188c-0.98047-0.65625-1.9453-1.1406-2.8906-1.4531-0.94922-0.3125-1.9492-0.46875-3-0.46875-1.875 0-3.3516 0.60547-4.4219 1.8125-1.0742 1.1992-1.6094 2.8555-1.6094 4.9688 0 2.1055 0.53516 3.7617 1.6094 4.9688 1.0703 1.1992 2.5469 1.7969 4.4219 1.7969 1.0508 0 2.0508-0.14844 3-0.45312 0.94531-0.3125 1.9102-0.80078 2.8906-1.4688z"/>
  </symbol>
  <symbol id="c" overflow="visible">
   <path d="m13.734-11.141c-0.4375-0.19531-0.87109-0.34375-1.2969-0.4375-0.41797-0.10156-0.83984-0.15625-1.2656-0.15625-1.2617 0-2.2305 0.40625-2.9062 1.2188-0.67969 0.80469-1.0156 1.9531-1.0156 3.4531v7.0625h-4.8906v-15.312h4.8906v2.5156c0.625-1 1.3438-1.7266 2.1562-2.1875 0.82031-0.46875 1.8008-0.70312 2.9375-0.70312 0.16406 0 0.34375 0.011719 0.53125 0.03125 0.19531 0.011719 0.47656 0.039062 0.84375 0.078125z"/>
  </symbol>
  <symbol id="a" overflow="visible">
   <path d="m17.641-7.7031v1.4062h-11.453c0.125 1.1484 0.53906 2.0078 1.25 2.5781 0.70703 0.57422 1.7031 0.85938 2.9844 0.85938 1.0312 0 2.082-0.14844 3.1562-0.45312 1.082-0.3125 2.1914-0.77344 3.3281-1.3906v3.7656c-1.1562 0.4375-2.3125 0.76562-3.4688 0.98438-1.1562 0.22656-2.3125 0.34375-3.4688 0.34375-2.7734 0-4.9297-0.70312-6.4688-2.1094-1.5312-1.4062-2.2969-3.3789-2.2969-5.9219 0-2.5 0.75391-4.4609 2.2656-5.8906 1.5078-1.4375 3.582-2.1562 6.2188-2.1562 2.4062 0 4.332 0.73047 5.7812 2.1875 1.4453 1.4492 2.1719 3.3828 2.1719 5.7969zm-5.0312-1.625c0-0.92578-0.27344-1.6719-0.8125-2.2344-0.54297-0.57031-1.25-0.85938-2.125-0.85938-0.94922 0-1.7188 0.26562-2.3125 0.79688s-0.96484 1.2969-1.1094 2.2969z"/>
  </symbol>
  <symbol id="f" overflow="visible">
   <path d="m9.2188-6.8906c-1.0234 0-1.793 0.17188-2.3125 0.51562-0.51172 0.34375-0.76562 0.85547-0.76562 1.5312 0 0.625 0.20703 1.1172 0.625 1.4688 0.41406 0.34375 0.98828 0.51562 1.7188 0.51562 0.92578 0 1.7031-0.32812 2.3281-0.98438 0.63281-0.66406 0.95312-1.4922 0.95312-2.4844v-0.5625zm7.4688-1.8438v8.7344h-4.9219v-2.2656c-0.65625 0.92969-1.3984 1.6055-2.2188 2.0312-0.82422 0.41406-1.8242 0.625-3 0.625-1.5859 0-2.8711-0.45703-3.8594-1.375-0.99219-0.92578-1.4844-2.1289-1.4844-3.6094 0-1.7891 0.61328-3.1016 1.8438-3.9375 1.2383-0.84375 3.1797-1.2656 5.8281-1.2656h2.8906v-0.39062c0-0.76953-0.30859-1.332-0.92188-1.6875-0.61719-0.36328-1.5703-0.54688-2.8594-0.54688-1.0547 0-2.0312 0.10547-2.9375 0.3125-0.89844 0.21094-1.7305 0.52344-2.5 0.9375v-3.7344c1.0391-0.25 2.0859-0.44141 3.1406-0.57812 1.0625-0.13281 2.125-0.20312 3.1875-0.20312 2.7578 0 4.75 0.54688 5.9688 1.6406 1.2266 1.0859 1.8438 2.8555 1.8438 5.3125z"/>
  </symbol>
  <symbol id="b" overflow="visible">
   <path d="m7.7031-19.656v4.3438h5.0469v3.5h-5.0469v6.5c0 0.71094 0.14062 1.1875 0.42188 1.4375s0.83594 0.375 1.6719 0.375h2.5156v3.5h-4.1875c-1.9375 0-3.3125-0.39844-4.125-1.2031-0.80469-0.8125-1.2031-2.1797-1.2031-4.1094v-6.5h-2.4219v-3.5h2.4219v-4.3438z"/>
  </symbol>
  <symbol id="j" overflow="visible">
   <path d="m12.766-13.078v-8.2031h4.9219v21.281h-4.9219v-2.2188c-0.66797 0.90625-1.4062 1.5703-2.2188 1.9844s-1.7578 0.625-2.8281 0.625c-1.8867 0-3.4336-0.75-4.6406-2.25-1.2109-1.5-1.8125-3.4258-1.8125-5.7812 0-2.3633 0.60156-4.2969 1.8125-5.7969 1.207-1.5 2.7539-2.25 4.6406-2.25 1.0625 0 2 0.21484 2.8125 0.64062 0.82031 0.42969 1.5664 1.0859 2.2344 1.9688zm-3.2188 9.9219c1.0391 0 1.8359-0.37891 2.3906-1.1406 0.55078-0.76953 0.82812-1.8828 0.82812-3.3438 0-1.457-0.27734-2.5664-0.82812-3.3281-0.55469-0.76953-1.3516-1.1562-2.3906-1.1562-1.043 0-1.8398 0.38672-2.3906 1.1562-0.55469 0.76172-0.82812 1.8711-0.82812 3.3281 0 1.4609 0.27344 2.5742 0.82812 3.3438 0.55078 0.76172 1.3477 1.1406 2.3906 1.1406z"/>
  </symbol>
  <symbol id="i" overflow="visible">
   <path d="m10.5-3.1562c1.0508 0 1.8516-0.37891 2.4062-1.1406 0.55078-0.76953 0.82812-1.8828 0.82812-3.3438 0-1.457-0.27734-2.5664-0.82812-3.3281-0.55469-0.76953-1.3555-1.1562-2.4062-1.1562-1.0547 0-1.8594 0.38672-2.4219 1.1562-0.55469 0.77344-0.82812 1.8828-0.82812 3.3281 0 1.4492 0.27344 2.5586 0.82812 3.3281 0.5625 0.77344 1.3672 1.1562 2.4219 1.1562zm-3.25-9.9219c0.67578-0.88281 1.4219-1.5391 2.2344-1.9688 0.82031-0.42578 1.7656-0.64062 2.8281-0.64062 1.8945 0 3.4453 0.75 4.6562 2.25 1.207 1.5 1.8125 3.4336 1.8125 5.7969 0 2.3555-0.60547 4.2812-1.8125 5.7812-1.2109 1.5-2.7617 2.25-4.6562 2.25-1.0625 0-2.0078-0.21094-2.8281-0.625-0.8125-0.42578-1.5586-1.0859-2.2344-1.9844v2.2188h-4.8906v-21.281h4.8906z"/>
  </symbol>
  <symbol id="e" overflow="visible">
   <path d="m0.34375-15.312h4.8906l4.125 10.391 3.5-10.391h4.8906l-6.4375 16.766c-0.64844 1.6953-1.4023 2.8828-2.2656 3.5625-0.86719 0.6875-2 1.0312-3.4062 1.0312h-2.8438v-3.2188h1.5312c0.83203 0 1.4375-0.13672 1.8125-0.40625 0.38281-0.26172 0.67969-0.73047 0.89062-1.4062l0.14062-0.42188z"/>
  </symbol>
  <symbol id="h" overflow="visible">
   <path d="m2.5781-20.406h5.25v16.422h9.25v3.9844h-14.5z"/>
  </symbol>
  <symbol id="g" overflow="visible">
   <path d="m16.547-12.766c0.61328-0.94531 1.3477-1.6719 2.2031-2.1719 0.85156-0.5 1.7891-0.75 2.8125-0.75 1.7578 0 3.0977 0.54688 4.0156 1.6406 0.92578 1.0859 1.3906 2.6562 1.3906 4.7188v9.3281h-4.9219v-7.9844-0.35938c0.007813-0.13281 0.015625-0.32031 0.015625-0.5625 0-1.082-0.16406-1.8633-0.48438-2.3438-0.3125-0.48828-0.82422-0.73438-1.5312-0.73438-0.92969 0-1.6484 0.38672-2.1562 1.1562-0.51172 0.76172-0.77344 1.8672-0.78125 3.3125v7.5156h-4.9219v-7.9844c0-1.6953-0.14844-2.7852-0.4375-3.2656-0.29297-0.48828-0.8125-0.73438-1.5625-0.73438-0.9375 0-1.6641 0.38672-2.1719 1.1562-0.51172 0.76172-0.76562 1.8594-0.76562 3.2969v7.5312h-4.9219v-15.312h4.9219v2.2344c0.60156-0.86328 1.2891-1.5156 2.0625-1.9531 0.78125-0.4375 1.6406-0.65625 2.5781-0.65625 1.0625 0 2 0.25781 2.8125 0.76562 0.8125 0.51172 1.4258 1.2305 1.8438 2.1562z"/>
  </symbol>
  <symbol id="t" overflow="visible">
   <path d="m2.3594-15.312h4.8906v15.312h-4.8906zm0-5.9688h4.8906v4h-4.8906z"/>
  </symbol>
  <symbol id="s" overflow="visible">
   <path d="m2.3594-21.281h4.8906v11.594l5.625-5.625h5.6875l-7.4688 7.0312 8.0625 8.2812h-5.9375l-5.9688-6.3906v6.3906h-4.8906z"/>
  </symbol>
  <symbol id="r" overflow="visible">
   <path d="m12.422-21.281v3.2188h-2.7031c-0.6875 0-1.1719 0.125-1.4531 0.375-0.27344 0.25-0.40625 0.6875-0.40625 1.3125v1.0625h4.1875v3.5h-4.1875v11.812h-4.8906v-11.812h-2.4375v-3.5h2.4375v-1.0625c0-1.6641 0.46094-2.8984 1.3906-3.7031 0.92578-0.80078 2.3672-1.2031 4.3281-1.2031z"/>
  </symbol>
  <symbol id="d" overflow="visible">
   <path d="m9.6406-12.188c-1.0859 0-1.9141 0.39062-2.4844 1.1719-0.57422 0.78125-0.85938 1.9062-0.85938 3.375s0.28516 2.5938 0.85938 3.375c0.57031 0.77344 1.3984 1.1562 2.4844 1.1562 1.0625 0 1.875-0.38281 2.4375-1.1562 0.57031-0.78125 0.85938-1.9062 0.85938-3.375s-0.28906-2.5938-0.85938-3.375c-0.5625-0.78125-1.375-1.1719-2.4375-1.1719zm0-3.5c2.6328 0 4.6914 0.71484 6.1719 2.1406 1.4766 1.418 2.2188 3.3867 2.2188 5.9062 0 2.5117-0.74219 4.4805-2.2188 5.9062-1.4805 1.418-3.5391 2.125-6.1719 2.125-2.6484 0-4.7148-0.70703-6.2031-2.125-1.4922-1.4258-2.2344-3.3945-2.2344-5.9062 0-2.5195 0.74219-4.4883 2.2344-5.9062 1.4883-1.4258 3.5547-2.1406 6.2031-2.1406z"/>
  </symbol>
  <symbol id="q" overflow="visible">
   <path d="m17.75-9.3281v9.3281h-4.9219v-7.1094c0-1.3438-0.03125-2.2656-0.09375-2.7656s-0.16797-0.86719-0.3125-1.1094c-0.1875-0.3125-0.44922-0.55469-0.78125-0.73438-0.32422-0.17578-0.69531-0.26562-1.1094-0.26562-1.0234 0-1.8242 0.39844-2.4062 1.1875-0.58594 0.78125-0.875 1.8711-0.875 3.2656v7.5312h-4.8906v-21.281h4.8906v8.2031c0.73828-0.88281 1.5195-1.5391 2.3438-1.9688 0.83203-0.42578 1.75-0.64062 2.75-0.64062 1.7695 0 3.1133 0.54688 4.0312 1.6406 0.91406 1.0859 1.375 2.6562 1.375 4.7188z"/>
  </symbol>
  <symbol id="p" overflow="visible">
   <path d="m2.5781-20.406h5.875l7.4219 14v-14h4.9844v20.406h-5.875l-7.4219-14v14h-4.9844z"/>
  </symbol>
  <symbol id="o" overflow="visible">
   <path d="m2.1875-5.9688v-9.3438h4.9219v1.5312c0 0.83594-0.007813 1.875-0.015625 3.125-0.011719 1.25-0.015625 2.0859-0.015625 2.5 0 1.2422 0.03125 2.1328 0.09375 2.6719 0.070313 0.54297 0.17969 0.93359 0.32812 1.1719 0.20703 0.32422 0.47266 0.57422 0.79688 0.75 0.32031 0.16797 0.69141 0.25 1.1094 0.25 1.0195 0 1.8203-0.39062 2.4062-1.1719 0.58203-0.78125 0.875-1.8672 0.875-3.2656v-7.5625h4.8906v15.312h-4.8906v-2.2188c-0.74219 0.89844-1.5234 1.5586-2.3438 1.9844-0.82422 0.41406-1.7344 0.625-2.7344 0.625-1.7617 0-3.1055-0.53906-4.0312-1.625-0.92969-1.082-1.3906-2.6602-1.3906-4.7344z"/>
  </symbol>
  <symbol id="n" overflow="visible">
   <path d="m17.75-9.3281v9.3281h-4.9219v-7.1406c0-1.3203-0.03125-2.2344-0.09375-2.7344s-0.16797-0.86719-0.3125-1.1094c-0.1875-0.3125-0.44922-0.55469-0.78125-0.73438-0.32422-0.17578-0.69531-0.26562-1.1094-0.26562-1.0234 0-1.8242 0.39844-2.4062 1.1875-0.58594 0.78125-0.875 1.8711-0.875 3.2656v7.5312h-4.8906v-15.312h4.8906v2.2344c0.73828-0.88281 1.5195-1.5391 2.3438-1.9688 0.83203-0.42578 1.75-0.64062 2.75-0.64062 1.7695 0 3.1133 0.54688 4.0312 1.6406 0.91406 1.0859 1.375 2.6562 1.375 4.7188z"/>
  </symbol>
  <symbol id="m" overflow="visible">
   <path d="m2.5781-20.406h8.7344c2.5938 0 4.582 0.57812 5.9688 1.7344 1.3945 1.1484 2.0938 2.7891 2.0938 4.9219 0 2.1367-0.69922 3.7812-2.0938 4.9375-1.3867 1.1562-3.375 1.7344-5.9688 1.7344h-3.4844v7.0781h-5.25zm5.25 3.8125v5.7031h2.9219c1.0195 0 1.8047-0.25 2.3594-0.75 0.5625-0.5 0.84375-1.2031 0.84375-2.1094 0-0.91406-0.28125-1.6172-0.84375-2.1094-0.55469-0.48828-1.3398-0.73438-2.3594-0.73438z"/>
  </symbol>
  <symbol id="l" overflow="visible">
   <path d="m2.3594-15.312h4.8906v15.031c0 2.0508-0.49609 3.6172-1.4844 4.7031-0.98047 1.082-2.4062 1.625-4.2812 1.625h-2.4219v-3.2188h0.85938c0.92578 0 1.5625-0.21094 1.9062-0.625 0.35156-0.41797 0.53125-1.2461 0.53125-2.4844zm0-5.9688h4.8906v4h-4.8906z"/>
  </symbol>
  <symbol id="k" overflow="visible">
   <path d="m14.719-14.828v3.9844c-0.65625-0.45703-1.3242-0.79688-2-1.0156-0.66797-0.21875-1.3594-0.32812-2.0781-0.32812-1.3672 0-2.4336 0.40234-3.2031 1.2031-0.76172 0.79297-1.1406 1.9062-1.1406 3.3438 0 1.4297 0.37891 2.543 1.1406 3.3438 0.76953 0.79297 1.8359 1.1875 3.2031 1.1875 0.75781 0 1.4844-0.10938 2.1719-0.32812 0.6875-0.22656 1.3203-0.56641 1.9062-1.0156v4c-0.76172 0.28125-1.5391 0.48828-2.3281 0.625-0.78125 0.14453-1.5742 0.21875-2.375 0.21875-2.7617 0-4.9219-0.70703-6.4844-2.125-1.5547-1.4141-2.3281-3.3828-2.3281-5.9062 0-2.5312 0.77344-4.5039 2.3281-5.9219 1.5625-1.4141 3.7227-2.125 6.4844-2.125 0.80078 0 1.5938 0.074219 2.375 0.21875 0.78125 0.13672 1.5547 0.35156 2.3281 0.64062z"/>
  </symbol>
 </defs>
 <g>
  <path d="m571.36 165.14c-4.5469-5.9883-12.156-9.7227-20.875-10.246-12.953-0.80078-26.453 5.4727-38.215 17.59-24.07 24.797-28.926 81.809-29.121 84.223-0.13281 1.5977 0.87891 3.0703 2.4141 3.5234 0.32031 0.09375 0.64453 0.14062 0.96484 0.14062 1.2227 0 2.3789-0.66016 2.9805-1.7812 2.9609-5.4727 22.082-20.66 55.328-37.277 22.199-11.098 29.301-23.91 31.344-32.703 1.9336-8.3477 0.17969-16.902-4.8203-23.469zm-1.793 21.93c-1.7148 7.375-7.9258 18.25-27.77 28.172-23.477 11.738-41.043 23.336-50.656 31.742 2.5156-17.473 9.457-52.746 25.996-69.781 9.8125-10.113 20.82-15.598 31.188-15.598 0.58203 0 1.1719 0.015625 1.7539 0.050781 6.6484 0.40234 12.594 3.2383 15.895 7.582 3.7578 4.9688 5.0781 11.465 3.5938 17.832zm-91.852 13.293c0.25391 0 0.50781-0.027344 0.76562-0.089844 1.5625-0.36328 2.6562-1.7695 2.6211-3.3711-0.066407-3.293 5.2031-18.582 21.297-42.555 10.188-15.176 10.059-26.035 8.1523-32.473-1.8242-6.1992-6.1719-11.16-11.898-13.621-5.2266-2.25-11.625-1.8711-17.543 1.0195-8.6055 4.2188-15.086 13.188-18.234 25.258-6.3672 24.461 11.02 62.277 11.766 63.875 0.56641 1.2148 1.7812 1.957 3.0742 1.957zm-8.2695-64.125c2.6367-10.129 7.8398-17.539 14.648-20.875 2.3984-1.1719 4.918-1.7695 7.2734-1.7695 1.6562 0 3.2266 0.29688 4.6211 0.89062 3.875 1.6641 6.8164 5.0586 8.0742 9.3125 1.4883 5.0469 1.4336 13.789-7.2852 26.773-9.9727 14.852-16.418 27.223-19.738 35.801-4.6836-12.43-11.582-34.816-7.5938-50.133zm61.312 268.34c-7.1016 2.7539-15.395 7.668-22.617 12.402 21.5-29.656 33.293-53.352 33.504-53.789 0.33203-0.67187 0.42578-1.4375 0.27344-2.1719-0.12891-0.60547-1.3672-6.0078-6.5625-8.9258-3.9531-2.2305-8.9102-2.3008-14.734-0.22266-10.242 3.6641-29.719 25.328-50.988 50.164 17.707-45.07 2.6641-85.992 2.4258-86.613-0.39844-1.0352-1.2773-1.8125-2.3516-2.082-0.29297-0.066406-4.6406-1.0469-9.9531 1.8125 6.8984-13.66 11.391-29.43 11.391-47.324 0-52.457-24.914-86.75-46.246-100.18-9.082-5.7188-17.383-7.5195-22.766-4.9375-7.9727 3.8242-10.129 15.484-13.121 31.629-1.8242 9.8633-3.8984 21.039-7.707 32.094-7.2188 20.984-20.227 36.305-36.637 43.152-13.055 5.4414-27.434 4.9766-40.5-1.3164-13.797-6.6406-19.141-18.75-21.191-27.727-0.64453-2.8398-1.0547-5.7617-1.2266-8.7031 11.312-3.6016 21.676-10.113 29.973-19.266 7.2852-8.0312 10.238-17.602 7.6992-24.965-1.5352-4.4453-4.918-7.4297-9.2891-8.1875-4.2266-0.71875-12.957 0.10547-23.973 13.91-6.8672 8.6016-10.848 20.895-11.227 33.344-11.844 2.7734-24.629 2.1055-36.809-2.3594-20.754-7.5898-34.07-24.496-34.766-44.129-0.48047-13.676 4.375-24.969 14.441-33.578 7.6289-6.5195 17.367-10.742 27.531-13.133 10.266 10.852 23.109 19.266 36.668 23.336 10.266 3.0781 20.641-0.39062 25.613-5.3984 3.1992-3.2266 4.375-7.2305 3.2148-10.992-2.0781-6.7539-10.793-11.66-25.883-14.582-10.965-2.1211-24.219-2.3477-37.156 0.11328-7.5586-8.6953-13.355-18.801-16.289-29.164-3.2891-11.633-4.4531-28.582 8.6758-43.305 12.73-14.281 32.648-19.395 54.621-13.988 13.098 3.2148 25.027 9.7109 33.98 17.941-4.5586 10.613-5.4805 22.082-2.0156 30.586 6.9961 17.152 15.242 15.977 17.625 15.203 6.625-2.1719 9.2188-11.801 6.3008-23.406-2.1172-8.4297-6.9609-16.57-13.719-23.734 1.082-1.9883 2.3125-3.9141 3.6797-5.7344 4.9375-6.5703 15.875-17.309 33.957-15.379 12.363 1.3164 22.43 7.2305 29.91 17.578 11.34 15.676 14.191 38.141 11.148 52.23-5.7773 26.797-26.977 44.312-51.902 42.414-7.2188-0.53125-15.008-6.3672-15.008-14.875 0-6.1875 5.0391-11.219 11.223-11.219 4.5742 0 8.293 3.7188 8.293 8.293 0 3.2891-2.6758 5.957-5.957 5.957-2.25 0-4.0898-1.8359-4.0898-4.0898 0-1.8711-1.5195-3.3867-3.3867-3.3867-1.8711 0-3.3867 1.5195-3.3867 3.3867 0 5.9922 4.8711 10.871 10.863 10.871 7.0234 0 12.734-5.7188 12.734-12.738 0-8.3086-6.7578-15.074-15.07-15.074-9.9297 0-18 8.0742-18 18 0 12.566 10.82 20.871 21.285 21.637 28.281 2.0273 52.516-17.562 59.031-47.75 3.3555-15.559 0.20703-40.355-12.285-57.637-8.5352-11.805-20.531-18.84-34.691-20.344-15.844-1.6758-30.07 4.7266-40.09 18.043-1.1992 1.5977-2.3008 3.2539-3.3047 4.957-9.625-8.4297-22.012-15.012-35.516-18.328-24.488-6.0195-46.832-0.16797-61.305 16.062-11.84 13.277-15.434 30.918-10.137 49.66 2.9219 10.344 8.3008 20.301 15.32 29.07-9.8711 2.75-19.246 7.207-26.898 13.746-11.547 9.8711-17.367 23.348-16.812 38.965 0.78906 22.445 15.812 41.703 39.211 50.262 12.977 4.75 26.566 5.6016 39.301 2.9062 0.21875 2.8555 0.64453 5.6836 1.2773 8.4453 3.3672 14.75 12.195 26.23 24.859 32.328 14.84 7.1445 31.191 7.668 46.055 1.4688 18.223-7.6055 32.574-24.371 40.434-47.207 3.9648-11.535 6.0859-22.973 7.957-33.066 2.4297-13.105 4.5234-24.414 9.3906-26.75 2.3359-1.1367 8.0078-0.60547 16.219 4.5625 19.875 12.512 43.082 44.75 43.082 94.438 0 16.723-4.4141 31.742-11.219 44.883-0.38672-0.91406-0.90234-1.5859-1.3477-1.9531-5.3945-4.4922-102.61-27.031-185.39 9.6719-11.094 4.918-20.957 10.781-29.734 17.277-8.4297-19.828-23.363-29.895-41.496-27.699-30.336 3.6445-65.336 42.844-71.395 102.12-4.1094 40.227 9.5938 57.727 21.816 65.328 8.1328 5.0586 17.414 6.9844 26.137 6.9844 9.8672 0 18.988-2.4766 24.961-5.6602 28.453 20.156 92.062 53.219 161.84 53.207 3.3281 0 6.6797-0.074219 10.031-0.23047 95.473-4.4297 184.26-110.73 188-115.25 0.80078-0.96875 0.99609-2.2969 0.51562-3.4609-2.3008-5.5195-10.789-14.457-26.309-8.4258zm-239.29-207c8.1016-10.152 13.945-11.543 16.527-11.543 0.42188 0 0.75781 0.039063 0.99609 0.078125 2.4258 0.42188 3.5352 2.2461 4.0312 3.7109 1.3008 3.7617 0.42188 10.781-6.3047 18.207-6.957 7.6719-15.539 13.289-24.922 16.645 0.69531-10.219 4.0859-20.09 9.6719-27.098zm-7.8008-65.059c17.406 3.3711 20.238 8.4492 20.691 9.9297 0.41406 1.3438-0.10547 2.7656-1.5469 4.2188-3.5117 3.5352-11.523 5.8867-18.848 3.6836-10.941-3.2812-21.543-9.8672-30.441-18.375 10.715-1.5039 21.406-1.1562 30.145 0.54297zm50.305-69.703c4.957 5.7695 8.5 12.137 10.148 18.688 2.3867 9.4883-0.0625 14.727-1.832 15.309-1.6016 0.51953-5.4727-2.0898-9.2344-11.316-2.4961-6.1289-2.0039-14.531 0.91797-22.68zm50.582 314.9c0.48828 1.4062 1.7969 2.2852 3.207 2.2852 0.36328 0 0.73828-0.0625 1.1016-0.18359 9.543-3.2891 36.02-17.504 56.391-42.465-0.38672 1.2695-0.77344 2.582-1.1875 3.9883-5.4805 18.602-13.781 46.711-44.289 71.566-17.188 14.004-44.34 18.598-63.141 10.691-8.1367-3.4219-18.133-10.652-19.5-25.625-3.3086-36.199 61.691-47.141 92.926-52.398 3.4766-0.58203 6.5742-1.1094 9.1953-1.5977 6.2227-1.1602 11.441-3.0859 15.785-5.4023-17.219 19.086-37.645 31.137-48.383 34.836-1.7773 0.60938-2.7109 2.5352-2.1055 4.3047zm-235.36 93.992c-15.18-9.4375-21.629-29.797-18.652-58.879 5.7188-55.898 37.777-92.754 65.465-96.078 15.598-1.8555 27.922 7.1719 35.055 25.336-47.137 38.457-58.953 96.047-49.984 122.66 0.55859 1.6641 3.8477 5.0352 9.4062 9.4141-9.7656 3.9102-27.316 6.2344-41.289-2.457zm219.06 53.289c-93.645 4.3125-177.46-55.965-180.76-62.41-10.199-30.289 8.8633-103.68 81.68-135.95 78.18-34.66 168.41-14.461 177.76-10.891-0.28125 4.1328-8.4219 17.758-28.926 21.578-2.582 0.48047-5.6445 0.99609-9.0781 1.5742-33.254 5.6016-102.43 17.242-98.555 59.703 1.3086 14.297 9.6953 25.402 23.625 31.258 21.273 8.9531 50.746 4.0469 70.051-11.68 32.137-26.18 41.137-56.684 46.512-74.906 1.707-5.7969 3.1875-10.797 4.8555-13.809 4.1992-7.5977 8.6953-9.2305 11.039-9.5273 4.6328 14.102 25.547 92.82-62.758 145.83-1.6055 0.96484-2.1211 3.0469-1.1641 4.6523 0.95703 1.6016 3.0391 2.1289 4.6523 1.1641 21.633-12.988 36.938-27.598 47.68-42.539 0.011718-0.011719 0.023437-0.011719 0.035156-0.015625 2.25-1.9141 7.0742-7.5391 15.406-17.316 15.871-18.625 42.438-49.812 52.605-53.441 3.8516-1.3711 6.9141-1.4688 9.0664-0.28125 1.6523 0.90234 2.5352 2.4453 2.9609 3.4453-5.1914 10.09-42.926 80.703-104.09 126.93-1.4961 1.125-1.793 3.2539-0.66016 4.75 0.66797 0.88672 1.6758 1.3438 2.7031 1.3438 0.71094 0 1.4336-0.22266 2.043-0.6875 23.32-17.625 43.27-38.695 59.41-58.723 0.14453-0.085937 0.30078-0.12891 0.44141-0.23438 0.23047-0.17969 23.023-17.922 38.422-23.906 9.8789-3.8359 14.711 0.41406 16.613 3.0625-12.164 14.062-95.699 107.04-181.57 111.03z"/>
  <use x="70" y="644" xlink:href="#u"/>
  <use x="90.550781" y="644" xlink:href="#c"/>
  <use x="104.359375" y="644" xlink:href="#a"/>
  <use x="123.347656" y="644" xlink:href="#f"/>
  <use x="142.242188" y="644" xlink:href="#b"/>
  <use x="155.628906" y="644" xlink:href="#a"/>
  <use x="174.617188" y="644" xlink:href="#j"/>
  <use x="204.410156" y="644" xlink:href="#i"/>
  <use x="224.453125" y="644" xlink:href="#e"/>
  <use x="252.453125" y="644" xlink:href="#h"/>
  <use x="270.292969" y="644" xlink:href="#f"/>
  <use x="289.1875" y="644" xlink:href="#e"/>
  <use x="307.4375" y="644" xlink:href="#g"/>
  <use x="336.617188" y="644" xlink:href="#t"/>
  <use x="346.210938" y="644" xlink:href="#s"/>
  <use x="70" y="672" xlink:href="#r"/>
  <use x="82.183594" y="672" xlink:href="#c"/>
  <use x="95.992188" y="672" xlink:href="#d"/>
  <use x="115.226562" y="672" xlink:href="#g"/>
  <use x="154.152344" y="672" xlink:href="#b"/>
  <use x="167.535156" y="672" xlink:href="#q"/>
  <use x="187.46875" y="672" xlink:href="#a"/>
  <use x="216.207031" y="672" xlink:href="#p"/>
  <use x="239.640625" y="672" xlink:href="#d"/>
  <use x="258.878906" y="672" xlink:href="#o"/>
  <use x="278.8125" y="672" xlink:href="#n"/>
  <use x="308.492188" y="672" xlink:href="#m"/>
  <use x="329.015625" y="672" xlink:href="#c"/>
  <use x="342.820312" y="672" xlink:href="#d"/>
  <use x="362.058594" y="672" xlink:href="#l"/>
  <use x="371.65625" y="672" xlink:href="#a"/>
  <use x="390.648438" y="672" xlink:href="#k"/>
  <use x="407.242188" y="672" xlink:href="#b"/>
 </g>
</svg>
